#Comment line ignore any data following # character 
#Hierarchical Translation and Rotation (.htr) file 
[Header]	
#Header keywords are followed by a single value 
FileType HTR		#Single word string
DataType HTRS		#Translation followed by rotation and scale data
FileVersion 1		#integer
NumSegments 64		#integer
NumFrames 3		#integer
DataFrameRate 30		#integer, data frame rate in this file
EulerRotationOrder ZYX
CalibrationUnits mm
RotationUnits Degrees
GlobalAxisofGravity Y
BoneLengthAxis Y
ScaleFactor 1.00
[SegmentNames&Hierarchy]
#CHILD	PARENT
Pinger_Root GLOBAL
Pelvis Pinger_Root
L_Hip Pelvis
R_Hip Pelvis
Rear_Leg01 Pelvis
Spine1 Pelvis
L_Leg01 L_Hip
L_Leg02 L_Leg01
L_Leg03 L_Leg02
L_Foot L_Leg03
L_Toe1_01 L_Foot
L_Toe2_01 L_Foot
L_Toe3_01 L_Foot
planeAlignerLeft L_Foot
L_Toe1_02 L_Toe1_01
L_Toe1_03 L_Toe1_02
L_Toe2_02 L_Toe2_01
L_Toe2_03 L_Toe2_02
L_Toe3_02 L_Toe3_01
L_Toe3_03 L_Toe3_02
planeLockWeightLeft planeAlignerLeft
R_Leg01 R_Hip
R_Leg02 R_Leg01
R_Leg03 R_Leg02
R_Foot R_Leg03
planeAlignerRight R_Foot
R_Toe1_01 R_Foot
R_Toe2_01 R_Foot
R_Toe3_01 R_Foot
planeLockWeightRight planeAlignerRight
R_Toe1_02 R_Toe1_01
R_Toe1_03 R_Toe1_02
R_Toe2_02 R_Toe2_01
R_Toe2_03 R_Toe2_02
R_Toe3_02 R_Toe3_01
R_Toe3_03 R_Toe3_02
Rear_Leg02 Rear_Leg01
Rear_Leg03 Rear_Leg02
Rear_Leg04 Rear_Leg03
Rear_Foot Rear_Leg04
planeAlignerCenter Rear_Foot
Rear_Toe1_01 Rear_Foot
Rear_Toe2_01 Rear_Foot
Rear_Toe3_01 Rear_Foot
planeLockWeightCenter planeAlignerCenter
Rear_Toe1_02 Rear_Toe1_01
Rear_Toe1_03 Rear_Toe1_02
Rear_Toe2_02 Rear_Toe2_01
Rear_Toe2_03 Rear_Toe2_02
Rear_Toe3_02 Rear_Toe3_01
Rear_Toe3_03 Rear_Toe3_02
Back_Bone Spine1
Head Spine1
Motor_Bone Back_Bone
Ping_Mechanism Back_Bone
BN_LookIK Head
bottomMouth Head
L_Mouth01 Head
L_mouthFront Head
mouthGun Head
R_Mouth01 Head
R_mouthFront Head
TopMouth Head
weapon_bone Head
[BasePosition]
#SegmentName Tx, Ty, Tz, Rx, Ry, Rz, BoneLength
Pinger_Root 0.000000 0.000000 0.000000 -90.000000 0.000000 0.000000 10.000000 
Pelvis 0.000000 0.000000 0.000000 0.000000 0.000000 0.000000 10.000000 
L_Hip 0.000000 0.000000 0.000000 0.000000 0.000000 0.000000 10.000000 
R_Hip 0.000000 0.000000 0.000000 0.000000 0.000000 0.000000 10.000000 
Rear_Leg01 0.000000 0.000000 0.000000 0.000000 0.000000 0.000000 10.000000 
Spine1 0.000000 0.000000 0.000000 0.000000 0.000000 0.000000 10.000000 
L_Leg01 0.000000 0.000000 0.000000 0.000000 0.000000 0.000000 10.000000 
L_Leg02 0.000000 0.000000 0.000000 0.000000 0.000000 0.000000 10.000000 
L_Leg03 0.000000 0.000000 0.000000 0.000000 0.000000 0.000000 10.000000 
L_Foot 0.000000 0.000000 0.000000 0.000000 0.000000 0.000000 10.000000 
L_Toe1_01 0.000000 0.000000 0.000000 0.000000 0.000000 0.000000 10.000000 
L_Toe2_01 0.000000 0.000000 0.000000 0.000000 0.000000 0.000000 10.000000 
L_Toe3_01 0.000000 0.000000 0.000000 0.000000 0.000000 0.000000 10.000000 
planeAlignerLeft 0.000000 0.000000 0.000000 0.000000 0.000000 0.000000 10.000000 
L_Toe1_02 0.000000 0.000000 0.000000 0.000000 0.000000 0.000000 10.000000 
L_Toe1_03 0.000000 0.000000 0.000000 0.000000 0.000000 0.000000 10.000000 
L_Toe2_02 0.000000 0.000000 0.000000 0.000000 0.000000 0.000000 10.000000 
L_Toe2_03 0.000000 0.000000 0.000000 0.000000 0.000000 0.000000 10.000000 
L_Toe3_02 0.000000 0.000000 0.000000 0.000000 0.000000 0.000000 10.000000 
L_Toe3_03 0.000000 0.000000 0.000000 0.000000 0.000000 0.000000 10.000000 
planeLockWeightLeft 0.000000 0.000000 0.000000 0.000000 0.000000 0.000000 10.000000 
R_Leg01 0.000000 0.000000 0.000000 0.000000 0.000000 0.000000 10.000000 
R_Leg02 0.000000 0.000000 0.000000 0.000000 0.000000 0.000000 10.000000 
R_Leg03 0.000000 0.000000 0.000000 0.000000 0.000000 0.000000 10.000000 
R_Foot 0.000000 0.000000 0.000000 0.000000 0.000000 0.000000 10.000000 
planeAlignerRight 0.000000 0.000000 0.000000 0.000000 0.000000 0.000000 10.000000 
R_Toe1_01 0.000000 0.000000 0.000000 0.000000 0.000000 0.000000 10.000000 
R_Toe2_01 0.000000 0.000000 0.000000 0.000000 0.000000 0.000000 10.000000 
R_Toe3_01 0.000000 0.000000 0.000000 0.000000 0.000000 0.000000 10.000000 
planeLockWeightRight 0.000000 0.000000 0.000000 0.000000 0.000000 0.000000 10.000000 
R_Toe1_02 0.000000 0.000000 0.000000 0.000000 0.000000 0.000000 10.000000 
R_Toe1_03 0.000000 0.000000 0.000000 0.000000 0.000000 0.000000 10.000000 
R_Toe2_02 0.000000 0.000000 0.000000 0.000000 0.000000 0.000000 10.000000 
R_Toe2_03 0.000000 0.000000 0.000000 0.000000 0.000000 0.000000 10.000000 
R_Toe3_02 0.000000 0.000000 0.000000 0.000000 0.000000 0.000000 10.000000 
R_Toe3_03 0.000000 0.000000 0.000000 0.000000 0.000000 0.000000 10.000000 
Rear_Leg02 0.000000 0.000000 0.000000 0.000000 0.000000 0.000000 10.000000 
Rear_Leg03 0.000000 0.000000 0.000000 0.000000 0.000000 0.000000 10.000000 
Rear_Leg04 0.000000 0.000000 0.000000 0.000000 0.000000 0.000000 10.000000 
Rear_Foot 0.000000 0.000000 0.000000 0.000000 0.000000 0.000000 10.000000 
planeAlignerCenter 0.000000 0.000000 0.000000 0.000000 0.000000 0.000000 10.000000 
Rear_Toe1_01 0.000000 0.000000 0.000000 0.000000 0.000000 0.000000 10.000000 
Rear_Toe2_01 0.000000 0.000000 0.000000 0.000000 0.000000 0.000000 10.000000 
Rear_Toe3_01 0.000000 0.000000 0.000000 0.000000 0.000000 0.000000 10.000000 
planeLockWeightCenter 0.000000 0.000000 0.000000 0.000000 0.000000 0.000000 10.000000 
Rear_Toe1_02 0.000000 0.000000 0.000000 0.000000 0.000000 0.000000 10.000000 
Rear_Toe1_03 0.000000 0.000000 0.000000 0.000000 0.000000 0.000000 10.000000 
Rear_Toe2_02 0.000000 0.000000 0.000000 0.000000 0.000000 0.000000 10.000000 
Rear_Toe2_03 0.000000 0.000000 0.000000 0.000000 0.000000 0.000000 10.000000 
Rear_Toe3_02 0.000000 0.000000 0.000000 0.000000 0.000000 0.000000 10.000000 
Rear_Toe3_03 0.000000 0.000000 0.000000 0.000000 0.000000 0.000000 10.000000 
Back_Bone 0.000000 0.000000 0.000000 0.000000 0.000000 0.000000 10.000000 
Head 0.000000 0.000000 0.000000 0.000000 0.000000 0.000000 10.000000 
Motor_Bone 0.000000 0.000000 0.000000 0.000000 0.000000 0.000000 10.000000 
Ping_Mechanism 0.000000 0.000000 0.000000 0.000000 0.000000 0.000000 10.000000 
BN_LookIK 0.000000 0.000000 0.000000 0.000000 0.000000 0.000000 10.000000 
bottomMouth 0.000000 0.000000 0.000000 0.000000 0.000000 0.000000 10.000000 
L_Mouth01 0.000000 0.000000 0.000000 0.000000 0.000000 0.000000 10.000000 
L_mouthFront 0.000000 0.000000 0.000000 0.000000 0.000000 0.000000 10.000000 
mouthGun 0.000000 0.000000 0.000000 0.000000 0.000000 0.000000 10.000000 
R_Mouth01 0.000000 0.000000 0.000000 0.000000 0.000000 0.000000 10.000000 
R_mouthFront 0.000000 0.000000 0.000000 0.000000 0.000000 0.000000 10.000000 
TopMouth 0.000000 0.000000 0.000000 0.000000 0.000000 0.000000 10.000000 
weapon_bone 0.000000 0.000000 0.000000 0.000000 0.000000 0.000000 10.000000 
#Beginning of Data. Separated by tabs
#Fr	Tx	Ty	Tz	Rx	Ry	Rz	SF
[Pinger_Root]
6 0.000000 0.000000 0.000000 -0.000075 -0.000000 -0.000020 0.000000
7 0.000000 0.000000 0.000000 -0.000075 -0.000000 -0.000020 0.000000
8 0.000000 0.000000 0.000000 -0.000075 -0.000000 -0.000020 0.000000
[Pelvis]
6 29.892612 996.680725 4589.387207 -59.950546 -73.653793 55.471916 4696.460938
7 55.156559 1001.136169 4627.511230 -59.386917 -75.614975 55.557041 4734.889160
8 96.130119 1000.932678 4655.799805 -57.610023 -80.142776 54.470428 4763.147949
[L_Hip]
6 5.766392 125.831482 872.656799 159.754120 -51.091709 119.737877 881.701050
7 5.766392 125.831482 872.656799 159.731537 -53.375641 118.685387 881.701050
8 5.766392 125.831482 872.656799 159.782013 -55.659439 117.573936 881.701050
[R_Hip]
6 5.765438 125.836372 -872.654907 37.550270 55.108337 124.680832 881.699829
7 5.765438 125.836372 -872.654907 37.241486 56.970745 124.248848 881.699829
8 5.765438 125.836372 -872.654907 36.616173 59.308807 123.600716 881.699829
[Rear_Leg01]
6 -192.298416 -925.602966 -0.001907 -168.377914 11.602955 173.843216 945.367432
7 -192.298416 -925.602966 -0.001907 -167.236847 9.507133 177.613022 945.367432
8 -192.298416 -925.602966 -0.001907 -166.270050 5.825708 -176.566162 945.367432
[Spine1]
6 290.604584 5.007505 0.000477 1.977378 -8.140326 8.626963 290.647736
7 290.604584 5.007505 0.000477 1.562214 -7.132742 10.136627 290.647736
8 290.604584 5.007505 0.000477 1.376846 -4.965484 13.877837 290.647736
[L_Leg01]
6 761.932007 -0.002384 -0.069261 17.643269 -31.836626 -19.109219 761.932068
7 761.932007 -0.002384 -0.069261 22.963541 -31.913588 -25.177071 761.932068
8 761.932007 -0.002384 -0.069261 30.272116 -29.861103 -31.687820 761.932068
[L_Leg02]
6 1441.140503 -0.000954 -0.000715 -0.913374 0.277409 -108.526169 1441.140503
7 1441.140503 -0.000954 -0.000715 -1.238165 0.379888 -104.125206 1441.140503
8 1441.140503 -0.000954 -0.000715 -1.228079 0.358598 -103.238121 1441.140503
[L_Leg03]
6 1686.963989 -0.000715 -0.000954 0.012210 -0.005287 106.350830 1686.963989
7 1686.963989 -0.000715 -0.000954 0.019208 -0.006043 104.929329 1686.963989
8 1686.963989 -0.000715 -0.000954 0.019170 -0.006163 105.644859 1686.963989
[L_Foot]
6 3041.570068 -30.715107 11.297464 3.570785 14.061028 54.448662 3041.746094
7 3041.570068 -30.715107 11.297464 3.403213 14.141631 53.628540 3041.746094
8 3041.570068 -30.715107 11.297464 2.756569 14.229693 53.140675 3041.746094
[L_Toe1_01]
6 -188.216690 -224.732346 -21.137953 95.058281 -8.469695 -175.514084 293.899567
7 -188.216690 -224.732346 -21.137953 95.496964 -8.972037 -175.948135 293.899567
8 -188.216690 -224.732346 -21.137953 96.206276 -9.691329 -177.767471 293.899567
[L_Toe2_01]
6 200.746536 -219.926590 148.838394 -93.281807 -31.829720 -40.595154 332.896027
7 200.746536 -219.926590 148.838394 -93.250473 -32.705849 -39.660553 332.896027
8 200.746536 -219.926590 148.838394 -90.704460 -31.378033 -43.839996 332.896027
[L_Toe3_01]
6 188.832520 -219.859131 -191.078659 -99.389252 16.031309 -53.687508 347.140900
7 188.832520 -219.859131 -191.078659 -99.953453 15.708204 -52.110840 347.140900
8 188.832520 -219.859131 -191.078659 -101.186493 13.088831 -54.116722 347.140900
[planeAlignerLeft]
6 -21.325686 -429.841339 133.511047 169.306686 -76.298271 89.968506 450.603546
7 -25.669250 -414.881317 143.917236 169.306686 -76.298271 89.968506 439.883606
8 25.455627 -453.888000 158.444595 169.270981 -76.686020 90.300217 481.421844
[L_Toe1_02]
6 413.761139 0.000477 0.000000 0.001395 -24.538698 0.001395 413.761139
7 413.761139 0.000477 0.000000 0.001400 -23.930992 0.001400 413.761139
8 413.761139 0.000477 0.000000 0.001384 -25.982475 0.001384 413.761139
[L_Toe1_03]
6 464.317322 0.000358 -0.000089 0.002679 38.041435 0.002679 464.317322
7 464.317322 0.000358 -0.000089 0.002569 35.622730 0.002569 464.317322
8 464.317322 0.000358 -0.000089 0.003589 51.830994 0.003589 464.317322
[L_Toe2_02]
6 342.235809 -0.000477 0.000238 0.001180 -78.001907 0.001180 342.235809
7 342.235809 -0.000477 0.000238 0.001180 -78.154755 0.001180 342.235809
8 342.235809 -0.000477 0.000238 0.001183 -75.253662 0.001183 342.235809
[L_Toe2_03]
6 420.210846 -0.000715 0.000000 -179.997040 76.034233 -179.993515 420.210846
7 420.210846 -0.000715 0.000000 -179.997253 75.389046 -179.993729 420.210846
8 420.210846 -0.000715 0.000000 -179.983551 86.382103 -179.980057 420.210846
[L_Toe3_02]
6 329.270111 0.000954 0.000000 0.004676 -84.425919 0.004676 329.270111
7 329.270111 0.000954 0.000000 0.004676 -84.579575 0.004676 329.270111
8 329.270111 0.000954 0.000000 0.004677 -83.972664 0.004677 329.270111
[L_Toe3_03]
6 439.137451 -0.001907 0.000954 179.992569 53.475365 179.999939 439.137451
7 439.137451 -0.001907 0.000954 179.992767 51.177559 -179.999832 439.137451
8 439.137451 -0.001907 0.000954 179.992004 58.817566 179.999268 439.137451
[planeLockWeightLeft]
6 -0.001068 0.000000 -0.000296 -0.011826 -0.004376 0.005620 0.001108
7 -0.001068 0.000000 -0.000296 -0.011826 -0.004376 0.005620 0.001108
8 -0.001068 0.000000 -0.000296 -0.011826 -0.004376 0.005620 0.001108
[R_Leg01]
6 761.455627 -0.001907 -0.000358 105.716843 -30.248177 23.014921 761.455688
7 761.455627 -0.001907 -0.000358 106.087822 -32.196930 25.819159 761.455688
8 761.455627 -0.001907 -0.000358 102.881081 -32.824265 33.866890 761.455688
[R_Leg02]
6 1441.140625 0.000000 -0.000238 -2.019446 -0.370397 -143.702667 1441.140625
7 1441.140625 0.000000 -0.000238 -1.958069 -0.287092 -144.702728 1441.140625
8 1441.140625 0.000000 -0.000238 -1.802105 -0.174390 -143.244232 1441.140625
[R_Leg03]
6 1686.963989 0.000954 0.001431 0.075847 -0.043435 131.179825 1686.963989
7 1686.963989 0.000954 0.001431 0.067931 -0.035202 129.025208 1686.963989
8 1686.963989 0.000954 0.001431 0.059883 -0.026956 126.241982 1686.963989
[R_Foot]
6 3041.560059 -30.531288 -11.204481 5.671111 -41.709396 61.317162 3041.734131
7 3041.560059 -30.531288 -11.204481 14.356444 -40.092762 59.830360 3041.734131
8 3041.560059 -30.531288 -11.204481 26.116997 -37.883083 56.434269 3041.734131
[planeAlignerRight]
6 -130.582565 -723.768372 -311.458649 -36.577164 -71.339035 -64.343941 798.685730
7 -120.516350 -730.184265 -284.581604 -36.798698 -74.234642 -62.611935 792.893372
8 -94.510498 -738.923035 -220.147095 -37.099861 -80.638718 -58.737061 776.790955
[R_Toe1_01]
6 -188.383347 -224.864899 21.052242 76.003662 0.332016 -162.042175 294.101532
7 -188.383347 -224.864899 21.052242 78.609566 1.153331 -160.964905 294.101532
8 -188.383347 -224.864899 21.052242 84.603447 3.317089 -158.222122 294.101532
[R_Toe2_01]
6 200.637817 -220.002121 -148.787384 -95.648643 28.864471 -65.552834 332.857574
7 200.637817 -220.002121 -148.787384 -97.144615 26.930113 -65.174843 332.857574
8 200.637817 -220.002121 -148.787384 -98.827484 23.220736 -62.397377 332.857574
[R_Toe3_01]
6 188.606735 -220.092957 191.126343 -72.527466 -6.356683 -79.680405 347.192566
7 188.606735 -220.092957 191.126343 -72.443970 -6.794843 -77.212051 347.192566
8 188.606735 -220.092957 191.126343 -73.387558 -8.155358 -68.859039 347.192566
[planeLockWeightRight]
6 999.999451 0.000000 -0.000305 -0.011823 -0.004379 -0.000027 999.999451
7 499.999847 0.000000 -0.000153 -0.011823 -0.004379 -0.000027 499.999847
8 0.000000 0.000000 0.000000 -0.011823 -0.004379 -0.000027 0.000000
[R_Toe1_02]
6 413.762085 0.000477 -0.000119 0.001385 -25.789642 0.001385 413.762085
7 413.762085 0.000477 -0.000119 0.001386 -25.678074 0.001386 413.762085
8 413.762085 0.000477 -0.000119 0.001387 -25.566504 0.001387 413.762085
[R_Toe1_03]
6 464.317810 0.000000 0.001088 0.004454 59.443020 0.004454 464.317810
7 464.317810 0.000000 0.001088 0.004476 59.596859 0.004476 464.317810
8 464.317810 0.000000 0.001088 0.004568 60.224743 0.004568 464.317810
[R_Toe2_02]
6 342.234741 -0.000954 0.000238 0.001228 -55.619480 0.001228 342.234741
7 342.234741 -0.000954 0.000238 0.001214 -60.461170 0.001214 342.234741
8 342.234741 -0.000954 0.000238 0.001195 -68.054672 0.001195 342.234741
[R_Toe2_03]
6 420.210846 0.000715 -0.000268 -0.003713 54.324253 -0.000040 420.210846
7 420.210846 0.000715 -0.000268 -0.004144 61.572926 -0.000537 420.210846
8 420.210846 0.000715 -0.000268 0.009175 75.301567 0.009175 420.210846
[R_Toe3_02]
6 329.270355 -0.000477 -0.000954 -0.002401 -60.741837 -0.002401 329.270355
7 329.270355 -0.000477 -0.000954 -0.002370 -67.173744 -0.002370 329.270355
8 329.270355 -0.000477 -0.000954 0.001183 -75.760338 0.001183 329.270355
[R_Toe3_03]
6 439.137939 0.000238 0.001431 0.004238 57.849018 0.004238 439.137939
7 439.137939 0.000238 0.001431 0.006197 68.166100 0.006197 439.137939
8 439.137939 0.000238 0.001431 -0.020556 86.497421 -0.017058 439.137939
[Rear_Leg02]
6 1162.777710 -0.029802 0.005960 5.737606 -5.296646 -151.594193 1162.777710
7 1162.777710 -0.029802 0.005960 6.909909 -6.856875 -145.515869 1162.777710
8 1162.777710 -0.029802 0.005960 7.913047 -8.531671 -139.447754 1162.777710
[Rear_Leg03]
6 607.192505 -0.013351 -0.073195 0.010146 -0.005763 75.549049 607.192505
7 607.192505 -0.013351 -0.073195 0.010165 -0.005729 75.164230 607.192505
8 607.192505 -0.013351 -0.073195 0.010192 -0.005681 74.628494 607.192505
[Rear_Leg04]
6 995.874512 -0.020504 -0.011921 -0.042394 -0.019169 85.496788 995.874573
7 995.874512 -0.020504 -0.011921 -0.043965 -0.018110 83.890907 995.874573
8 995.874512 -0.020504 -0.011921 -0.045564 -0.017096 82.285027 995.874573
[Rear_Foot]
6 3096.176270 -0.067472 -0.041425 -63.734531 81.351280 101.608932 3096.176270
7 3096.176270 -0.067472 -0.041425 -72.137306 79.919662 91.437149 3096.176270
8 3096.176270 -0.067472 -0.041425 -79.337379 78.187088 81.975426 3096.176270
[planeAlignerCenter]
6 41.082008 -117.347771 -747.485840 12.240769 -0.001473 179.998184 757.755432
7 29.099312 -69.181595 -697.370117 12.240772 -0.001473 179.998184 701.397156
8 6.846179 20.329742 -604.311218 12.240769 -0.001473 179.998184 604.691833
[Rear_Toe1_01]
6 0.653352 83.966492 -371.173737 -1.308613 37.829433 87.814117 380.553192
7 0.653352 83.966492 -371.173737 -0.724264 34.817516 88.652527 380.553192
8 0.653352 83.966492 -371.173737 0.061784 30.105684 90.032166 380.553192
[Rear_Toe2_01]
6 178.200760 -294.826019 -362.060547 -6.675104 29.010538 -66.209763 499.765686
7 178.200760 -294.826019 -362.060547 -6.720973 29.109119 -65.919014 499.765686
8 178.200760 -294.826019 -362.060547 -6.947793 25.072084 -64.907921 499.765686
[Rear_Toe3_01]
6 -153.359680 -308.780914 -362.060852 4.177408 29.111246 -108.474770 499.952881
7 -153.359680 -308.780914 -362.060852 4.035228 28.649105 -109.842613 499.952881
8 -153.359680 -308.780914 -362.060852 3.972479 24.592529 -112.795723 499.952881
[planeLockWeightCenter]
6 -0.000095 0.000305 0.000000 -0.011814 -0.004373 -0.000015 0.000320
7 -0.000094 0.000305 0.000000 -0.011814 -0.004373 -0.000015 0.000319
8 -0.000093 0.000305 0.000000 -0.011814 -0.004373 -0.000015 0.000319
[Rear_Toe1_02]
6 379.707825 0.194073 0.000477 -0.000767 -33.624729 0.000838 379.707855
7 379.707825 0.194073 0.000477 -0.000767 -33.624729 0.000838 379.707855
8 379.707825 0.194073 0.000477 -0.000767 -33.624729 0.000838 379.707855
[Rear_Toe1_03]
6 500.129700 0.165701 0.000119 0.009377 75.620499 0.009377 500.129761
7 500.129700 0.165701 0.000119 0.008395 73.927422 0.008395 500.129761
8 500.129700 0.165701 0.000119 -0.004813 68.148201 -0.001252 500.129761
[Rear_Toe2_02]
6 340.494507 0.000238 -0.000954 0.001240 -52.207008 0.001240 340.494507
7 340.494507 0.000238 -0.000954 0.001207 -63.007961 0.001207 340.494507
8 340.494507 0.000238 -0.000954 0.001182 -76.243584 0.001182 340.494507
[Rear_Toe2_03]
6 433.103577 0.000000 0.000238 -0.003442 46.796867 0.000319 433.103546
7 433.103577 0.000000 0.000238 0.004538 60.024734 0.004538 433.103546
8 433.103577 0.000000 0.000238 0.013998 80.381027 0.013998 433.103546
[Rear_Toe3_02]
6 340.494141 -0.000358 -0.000477 -0.002440 -54.392792 -0.002440 340.494171
7 340.494141 -0.000358 -0.000477 0.006995 -63.350510 -0.008177 340.494171
8 340.494141 -0.000358 -0.000477 0.001184 -74.593201 0.001184 340.494171
[Rear_Toe3_03]
6 433.103577 0.001431 -0.000238 0.000212 49.309399 -0.003518 433.103546
7 433.103577 0.001431 -0.000238 -0.000447 60.470753 -0.004063 433.103546
8 433.103577 0.001431 -0.000238 0.010795 77.517006 0.010795 433.103546
[Back_Bone]
6 1312.175781 -701.934692 0.000954 0.904015 0.255072 -85.360664 1488.125488
7 1312.175781 -701.934692 0.000954 0.789553 0.306040 -85.311317 1488.125488
8 1312.175781 -701.934692 0.000954 0.523224 0.389008 -85.227188 1488.125488
[Head]
6 1406.159424 809.709290 0.001431 -0.231601 -1.005572 10.146113 1622.625488
7 1406.159424 809.709290 0.001431 -0.357360 -0.803302 11.190577 1622.625488
8 1406.159424 809.709290 0.001431 -0.479438 -0.598721 12.234821 1622.625488
[Motor_Bone]
6 1158.364380 -417.834747 0.000477 -0.453235 0.087121 -105.903557 1231.419434
7 1158.364380 -417.834747 0.000477 -0.524805 0.089334 -105.901138 1231.419434
8 1158.364380 -417.834747 0.000477 -0.596375 0.091550 -105.898720 1231.419434
[Ping_Mechanism]
6 1280.649536 -452.858856 46.925465 0.000103 -0.000053 82.120995 1359.171265
7 1272.429565 -451.633301 41.392242 0.000103 -0.000053 82.120995 1350.837891
8 1252.611206 -446.263733 28.394913 0.000103 -0.000053 82.120995 1330.034668
[BN_LookIK]
6 193.241119 1380.371704 -0.002861 0.000000 89.965736 -31.038179 1393.832153
7 193.241119 1380.371704 -0.002861 0.000000 89.965736 -31.038179 1393.832153
8 193.241119 1380.371704 -0.002861 0.000000 89.965736 -31.038179 1393.832153
[bottomMouth]
6 -435.092926 615.759399 -0.000954 -0.000022 0.000016 73.527184 753.966492
7 -435.092926 615.759399 -0.000954 -0.000022 0.000016 73.527184 753.966492
8 -435.092926 615.759399 -0.000954 -0.000022 0.000016 73.527184 753.966492
[L_Mouth01]
6 554.440979 7.658243 838.222046 150.204178 23.759130 109.605339 1005.027161
7 554.440979 7.658243 838.222046 150.204178 23.759130 109.605339 1005.027161
8 554.440979 7.658243 838.222046 150.204178 23.759130 109.605339 1005.027161
[L_mouthFront]
6 551.629089 934.514771 339.150421 0.000081 2.804060 79.119301 1136.941284
7 551.629089 934.514771 339.150421 0.000081 2.804060 79.119301 1136.941284
8 551.629089 934.514771 339.150421 0.000081 2.804060 79.119301 1136.941284
[mouthGun]
6 55.332661 1627.420898 0.000000 0.000023 0.000009 -11.038128 1628.361328
7 55.332661 1627.420898 0.000000 0.000023 0.000009 -11.038128 1628.361328
8 55.332661 1627.420898 0.000000 0.000023 0.000009 -11.038128 1628.361328
[R_Mouth01]
6 554.442383 7.659197 -838.223938 29.795891 -23.759109 109.605331 1005.029541
7 554.442383 7.659197 -838.223938 29.795891 -23.759109 109.605331 1005.029541
8 554.442383 7.659197 -838.223938 29.795891 -23.759109 109.605331 1005.029541
[R_mouthFront]
6 551.629089 934.514282 -339.151367 0.000029 -2.803930 79.119133 1136.941162
7 551.629089 934.514282 -339.151367 0.000029 -2.803930 79.119133 1136.941162
8 551.629089 934.514282 -339.151367 0.000029 -2.803930 79.119133 1136.941162
[TopMouth]
6 461.269867 -56.106091 -0.008583 -0.000059 -0.000268 92.025169 464.669525
7 461.269867 -56.106091 -0.008583 -0.000059 -0.000268 92.025169 464.669525
8 461.269867 -56.106091 -0.008583 -0.000059 -0.000268 92.025169 464.669525
[weapon_bone]
6 -987.239868 1448.372803 0.001431 0.000000 89.965736 -31.038221 1752.833740
7 -987.239868 1448.372803 0.001431 0.000000 89.965736 -31.038221 1752.833740
8 -987.239868 1448.372803 0.001431 0.000000 89.965736 -31.038221 1752.833740
